<svg version="1.1" id="Layer_1" xmlns="http://www.w3.org/2000/svg" xmlns:xlink="http://www.w3.org/1999/xlink" x="0px" y="0px"
	 width="100%" viewBox="0 0 3669 3669" enable-background="new 0 0 3669 3669" xml:space="preserve">
<path fill="#FFFFFF" opacity="1.000000" stroke="none" 
	d="
M1.999989,822.000000 
	C2.000000,653.279602 2.000000,484.559204 2.484416,314.910461 
	C2.645889,313.321411 2.322945,312.660706 2.000000,312.000000 
	C2.000000,247.279602 2.000000,182.559219 2.398090,116.825592 
	C2.530786,115.208244 2.265392,114.604118 1.999999,114.000000 
	C2.000000,92.612938 2.000000,71.225883 2.738201,49.284569 
	C4.369896,45.233860 5.361187,41.759003 6.139136,38.237019 
	C8.816407,26.116325 13.915910,15.601318 25.812288,10.071855 
	C30.259230,8.004907 35.227581,7.085475 39.803928,5.256774 
	C41.333710,4.645475 44.847824,5.881208 44.000000,2.000000 
	C1240.720337,2.000000 2437.440674,2.000000 3634.708252,2.715176 
	C3636.763672,4.030612 3638.222168,4.892877 3639.788086,5.190532 
	C3655.060791,8.093764 3665.284424,16.439108 3669.194092,31.887655 
	C3669.417969,32.771824 3671.032471,33.304081 3672.000000,34.000038 
	C3672.000000,38.739956 3672.000000,43.479916 3671.312988,48.937527 
	C3671.083984,50.436756 3671.541992,51.218327 3672.000000,51.999947 
	C3672.000000,1241.387085 3672.000000,2430.774170 3671.356689,3620.953613 
	C3671.142334,3622.497314 3671.571045,3623.248779 3672.000000,3624.000000 
	C3672.000000,3628.739990 3672.000000,3633.479980 3671.318848,3638.683105 
	C3669.514893,3641.884277 3668.370361,3644.613037 3667.274414,3647.361328 
	C3664.466064,3654.402832 3660.120850,3660.292969 3653.187988,3663.523193 
	C3648.422852,3665.743652 3643.131592,3666.809570 3638.202148,3668.718262 
	C3636.635254,3669.324707 3633.170898,3668.134033 3634.000000,3672.000000 
	C2438.613037,3672.000000 1243.225830,3672.000000 47.331539,3671.282227 
	C44.027744,3669.695068 41.279915,3668.594482 38.426727,3667.994629 
	C19.806032,3664.078369 9.050758,3652.734863 5.959315,3634.010010 
	C5.584133,3631.737549 5.201448,3629.439697 4.478013,3627.268066 
	C4.268713,3626.639893 2.859257,3626.411621 2.000010,3626.000000 
	C2.000000,3535.946289 2.000000,3445.892578 2.435975,3354.793945 
	C3.008334,3353.480225 3.319971,3353.040039 3.252062,3352.970459 
	C2.886874,3352.596191 2.426985,3352.314209 1.999972,3352.000000 
	C2.000000,3277.279541 2.000000,3202.559326 2.616352,3126.877441 
	C2.821809,3125.277344 2.410913,3124.638672 2.000009,3124.000000 
	C2.000000,2357.946289 2.000000,1591.892578 2.716918,825.113220 
	C2.955883,823.591797 2.477930,822.795898 1.999989,822.000000 
M883.416626,2173.592529 
	C965.191833,2288.326904 1045.553955,2404.101074 1129.058594,2517.562500 
	C1270.044189,2709.126221 1413.032959,2899.215332 1555.151733,3089.945068 
	C1603.320923,3154.590332 1651.431763,3219.279541 1699.515015,3283.989014 
	C1712.317383,3301.218018 1726.559204,3316.960693 1744.567139,3328.939941 
	C1759.239258,3338.699951 1775.131714,3345.050781 1792.924194,3345.957031 
	C1814.857910,3347.074463 1834.121704,3339.666260 1851.713867,3327.242432 
	C1867.960449,3315.769043 1880.859619,3301.025391 1892.614624,3285.119629 
	C2158.319824,2925.588867 2423.960449,2566.010254 2689.893066,2206.647461 
	C2739.924072,2139.039062 2785.706299,2068.947021 2822.820312,1993.327515 
	C2885.280518,1866.065063 2922.529785,1731.870117 2933.557129,1590.554077 
	C2938.515625,1527.012451 2937.884521,1463.421509 2932.501709,1399.862427 
	C2926.783447,1332.340820 2915.565918,1265.788940 2897.837891,1200.414429 
	C2839.001953,983.447327 2724.951904,800.841492 2555.332764,653.299744 
	C2436.736816,550.140015 2301.572021,475.922150 2152.752686,426.187042 
	C2076.829590,400.813721 1999.208374,382.392517 1919.855103,371.755798 
	C1885.869507,367.200317 1851.750244,363.281067 1817.570435,360.645416 
	C1786.703369,358.265228 1755.648193,356.695770 1724.718018,357.226410 
	C1694.465088,357.745453 1664.208008,360.785309 1634.055054,363.757751 
	C1578.624146,369.221985 1524.094971,379.953613 1470.440063,394.792114 
	C1264.141357,451.845062 1092.231323,563.190918 953.076233,725.147095 
	C837.173828,860.040588 754.564758,1013.705261 700.310364,1182.752075 
	C674.884277,1261.975464 659.004150,1343.232910 652.527100,1426.209473 
	C648.788940,1474.097656 648.582703,1522.050415 651.595337,1570.034668 
	C654.606079,1617.989746 660.999634,1665.463623 670.821167,1712.458496 
	C692.758789,1817.427246 730.527283,1916.570801 781.040833,2011.030884 
	C811.094666,2067.231201 846.082397,2120.291504 883.416626,2173.592529 
z"/>
<path fill="#0F0A0A" opacity="1.000000" stroke="none" 
	d="
M2.000010,3626.937500 
	C2.859257,3626.411621 4.268713,3626.639893 4.478013,3627.268066 
	C5.201448,3629.439697 5.584133,3631.737549 5.959315,3634.010010 
	C9.050758,3652.734863 19.806032,3664.078369 38.426727,3667.994629 
	C41.279915,3668.594482 44.027744,3669.695068 46.412128,3671.282227 
	C31.477528,3672.000000 16.955057,3672.000000 2.000000,3672.000000 
	C2.000000,3657.294434 2.000000,3642.584717 2.000010,3626.937500 
z"/>
<path fill="#0F0A0A" opacity="1.000000" stroke="none" 
	d="
M43.062176,2.000000 
	C44.847824,5.881208 41.333710,4.645475 39.803928,5.256774 
	C35.227581,7.085475 30.259230,8.004907 25.812288,10.071855 
	C13.915910,15.601318 8.816407,26.116325 6.139136,38.237019 
	C5.361187,41.759003 4.369896,45.233860 2.738201,48.365158 
	C2.000000,32.820995 2.000000,17.641991 2.000000,2.000000 
	C15.371222,2.000000 28.747787,2.000000 43.062176,2.000000 
z"/>
<path fill="#0F0A0A" opacity="1.000000" stroke="none" 
	d="
M3634.938721,3672.000000 
	C3633.170898,3668.134033 3636.635254,3669.324707 3638.202148,3668.718262 
	C3643.131592,3666.809570 3648.422852,3665.743652 3653.187988,3663.523193 
	C3660.120850,3660.292969 3664.466064,3654.402832 3667.274414,3647.361328 
	C3668.370361,3644.613037 3669.514893,3641.884277 3671.318848,3639.573242 
	C3672.000000,3650.531006 3672.000000,3661.062012 3672.000000,3672.000000 
	C3659.962158,3672.000000 3647.919922,3672.000000 3634.938721,3672.000000 
z"/>
<path fill="#0F0A0A" opacity="1.000000" stroke="none" 
	d="
M3672.000000,33.057644 
	C3671.032471,33.304081 3669.417969,32.771824 3669.194092,31.887655 
	C3665.284424,16.439108 3655.060791,8.093764 3639.788086,5.190532 
	C3638.222168,4.892877 3636.763672,4.030612 3635.627686,2.715176 
	C3647.841553,2.000000 3659.683105,2.000000 3672.000000,2.000000 
	C3672.000000,12.033401 3672.000000,22.074305 3672.000000,33.057644 
z"/>
<path fill="#555555" opacity="1.000000" stroke="none" 
	d="
M1.999989,822.500000 
	C2.477930,822.795898 2.955883,823.591797 2.716918,824.193848 
	C2.000000,824.000000 2.000000,823.000000 1.999989,822.500000 
z"/>
<path fill="#BCBCBC" opacity="1.000000" stroke="none" 
	d="
M2.000000,312.500000 
	C2.322945,312.660706 2.645889,313.321411 2.484416,313.991058 
	C2.000000,314.000000 2.000000,313.000000 2.000000,312.500000 
z"/>
<path fill="#BCBCBC" opacity="1.000000" stroke="none" 
	d="
M1.999999,114.500000 
	C2.265392,114.604118 2.530786,115.208244 2.398090,115.906181 
	C2.000000,116.000000 2.000000,115.000000 1.999999,114.500000 
z"/>
<path fill="#AAAAAA" opacity="1.000000" stroke="none" 
	d="
M3672.000000,51.499947 
	C3671.541992,51.218327 3671.083984,50.436756 3671.312988,49.827591 
	C3672.000000,50.000000 3672.000000,51.000000 3672.000000,51.499947 
z"/>
<path fill="#AAAAAA" opacity="1.000000" stroke="none" 
	d="
M2.000009,3124.500000 
	C2.410913,3124.638672 2.821809,3125.277344 2.616352,3125.958008 
	C2.000000,3126.000000 2.000000,3125.000000 2.000009,3124.500000 
z"/>
<path fill="#D7D8D8" opacity="1.000000" stroke="none" 
	d="
M1.999972,3352.500000 
	C2.426985,3352.314209 2.886874,3352.596191 3.252062,3352.970459 
	C3.319971,3353.040039 3.008334,3353.480225 2.435975,3353.874512 
	C2.000000,3354.000000 2.000000,3353.000000 1.999972,3352.500000 
z"/>
<path fill="#555555" opacity="1.000000" stroke="none" 
	d="
M3672.000000,3623.500000 
	C3671.571045,3623.248779 3671.142334,3622.497314 3671.356689,3621.873047 
	C3672.000000,3622.000000 3672.000000,3623.000000 3672.000000,3623.500000 
z"/>
<path fill="#010101" opacity="1.000000" stroke="none" 
	d="
M882.984375,2173.015137 
	C846.082397,2120.291504 811.094666,2067.231201 781.040833,2011.030884 
	C730.527283,1916.570801 692.758789,1817.427246 670.821167,1712.458496 
	C660.999634,1665.463623 654.606079,1617.989746 651.595337,1570.034668 
	C648.582703,1522.050415 648.788940,1474.097656 652.527100,1426.209473 
	C659.004150,1343.232910 674.884277,1261.975464 700.310364,1182.752075 
	C754.564758,1013.705261 837.173828,860.040588 953.076233,725.147095 
	C1092.231323,563.190918 1264.141357,451.845062 1470.440063,394.792114 
	C1524.094971,379.953613 1578.624146,369.221985 1634.055054,363.757751 
	C1664.208008,360.785309 1694.465088,357.745453 1724.718018,357.226410 
	C1755.648193,356.695770 1786.703369,358.265228 1817.570435,360.645416 
	C1851.750244,363.281067 1885.869507,367.200317 1919.855103,371.755798 
	C1999.208374,382.392517 2076.829590,400.813721 2152.752686,426.187042 
	C2301.572021,475.922150 2436.736816,550.140015 2555.332764,653.299744 
	C2724.951904,800.841492 2839.001953,983.447327 2897.837891,1200.414429 
	C2915.565918,1265.788940 2926.783447,1332.340820 2932.501709,1399.862427 
	C2937.884521,1463.421509 2938.515625,1527.012451 2933.557129,1590.554077 
	C2922.529785,1731.870117 2885.280518,1866.065063 2822.820312,1993.327515 
	C2785.706299,2068.947021 2739.924072,2139.039062 2689.893066,2206.647461 
	C2423.960449,2566.010254 2158.319824,2925.588867 1892.614624,3285.119629 
	C1880.859619,3301.025391 1867.960449,3315.769043 1851.713867,3327.242432 
	C1834.121704,3339.666260 1814.857910,3347.074463 1792.924194,3345.957031 
	C1775.131714,3345.050781 1759.239258,3338.699951 1744.567139,3328.939941 
	C1726.559204,3316.960693 1712.317383,3301.218018 1699.515015,3283.989014 
	C1651.431763,3219.279541 1603.320923,3154.590332 1555.151733,3089.945068 
	C1413.032959,2899.215332 1270.044189,2709.126221 1129.058594,2517.562500 
	C1045.553955,2404.101074 965.191833,2288.326904 882.984375,2173.015137 
M2130.350342,620.590027 
	C2128.769287,620.055603 2127.183350,619.536072 2125.608154,618.984619 
	C2004.223755,576.484436 1879.675659,552.708313 1750.616333,555.244446 
	C1701.529907,556.209106 1652.864502,561.119019 1604.712891,570.501770 
	C1492.855957,592.297913 1389.789185,635.513428 1295.473511,699.356628 
	C1176.228638,780.074768 1079.474854,882.856201 1001.034180,1003.065674 
	C920.410461,1126.620728 872.032715,1261.611938 860.548889,1409.175171 
	C854.359009,1488.713379 859.922241,1567.641235 874.688171,1645.925781 
	C889.169189,1722.700073 912.411926,1796.878540 941.938232,1869.161865 
	C946.072021,1879.281982 948.821289,1889.964355 952.286316,1900.361572 
	C955.959961,1911.384521 958.797729,1922.806030 963.653564,1933.287842 
	C971.913879,1951.118408 984.692139,1955.741089 1003.111938,1949.141357 
	C1016.566284,1944.320679 1030.099243,1939.699463 1043.419067,1934.530151 
	C1054.245239,1930.328369 1065.125488,1926.061523 1075.422119,1920.740601 
	C1100.144653,1907.964844 1114.861328,1887.460693 1119.204712,1859.963501 
	C1120.494873,1851.796143 1120.653320,1843.372925 1120.557495,1835.075928 
	C1119.753906,1765.440552 1118.112305,1695.808716 1117.974121,1626.173218 
	C1117.660522,1468.189331 1117.914307,1310.203735 1118.322632,1152.219727 
	C1118.386353,1127.575928 1111.015991,1106.775757 1094.120483,1088.723022 
	C1088.142212,1082.335449 1083.293701,1074.201782 1080.114624,1066.016357 
	C1071.522827,1043.895508 1080.767212,1024.074097 1103.290894,1016.605835 
	C1112.590576,1013.522278 1122.838135,1012.027344 1132.656860,1012.016602 
	C1162.302979,1011.984131 1191.947632,1013.229858 1221.597656,1013.618164 
	C1273.249146,1014.294800 1324.880249,1014.424988 1376.472656,1010.625244 
	C1390.313110,1009.605896 1404.475952,1010.395630 1418.283081,1012.069092 
	C1441.663086,1014.902771 1456.671509,1028.747070 1461.538452,1051.636963 
	C1464.420776,1065.193115 1465.750488,1079.354736 1465.639648,1093.226929 
	C1464.965698,1177.525391 1463.181396,1261.816528 1462.737671,1346.115112 
	C1462.325317,1424.428833 1463.157837,1502.748901 1463.379272,1581.066284 
	C1463.574463,1650.057983 1463.682739,1719.050049 1463.828125,1788.041870 
	C1463.834961,1791.290405 1463.828979,1794.538940 1463.828979,1797.626953 
	C1477.436890,1799.984009 1490.006958,1800.374268 1502.632690,1798.119263 
	C1520.682739,1794.895264 1532.650391,1784.885010 1538.239136,1767.223511 
	C1542.019043,1755.277832 1542.655029,1743.026245 1542.593872,1730.678833 
	C1542.225830,1656.361328 1541.477417,1582.044312 1541.473511,1507.727051 
	C1541.464355,1333.744263 1541.810181,1159.761475 1541.990723,985.778625 
	C1542.004272,972.782288 1541.549316,959.779053 1541.841187,946.790955 
	C1542.259033,928.201294 1550.395386,913.532043 1565.684326,902.940979 
	C1569.232300,900.483276 1572.970093,898.257507 1576.784180,896.233398 
	C1594.413940,886.877075 1611.977173,877.383240 1629.793823,868.393677 
	C1667.541626,849.347961 1705.835327,831.605469 1747.068481,821.162231 
	C1780.020752,812.816406 1813.235474,809.522156 1847.052490,814.994446 
	C1887.459351,821.533020 1923.153198,838.693726 1955.114990,863.661255 
	C1967.846069,873.606140 1980.435303,882.987671 1996.795044,885.803772 
	C1999.376831,886.248108 2001.871338,887.403809 2004.307495,888.458496 
	C2025.182007,897.495178 2038.819702,912.664368 2044.520630,934.983154 
	C2048.111816,949.042664 2048.653564,963.291321 2048.563477,977.620300 
	C2048.089111,1052.933350 2047.203857,1128.245239 2047.068237,1203.558594 
	C2046.886353,1304.546631 2047.240356,1405.535889 2047.401855,1506.524536 
	C2047.510498,1574.515991 2047.751343,1642.507446 2047.762939,1710.498901 
	C2047.764771,1721.807861 2046.818115,1733.114502 2046.454224,1744.426880 
	C2046.229492,1751.415894 2045.758545,1758.455566 2046.317749,1765.398315 
	C2047.327271,1777.934204 2052.812256,1787.848267 2065.469727,1792.030518 
	C2081.162842,1797.216064 2097.040039,1796.920776 2112.544922,1791.439087 
	C2122.091797,1788.063965 2128.135742,1780.844482 2128.443848,1770.463867 
	C2128.688721,1762.206299 2127.730469,1753.892090 2126.988525,1745.631592 
	C2126.186768,1736.700562 2124.120605,1727.800293 2124.145508,1718.890991 
	C2124.375244,1637.245972 2125.170654,1555.602295 2125.349365,1473.957275 
	C2125.583008,1367.298096 2125.430176,1260.638184 2125.388428,1153.978516 
	C2125.378662,1129.657959 2124.810791,1105.333008 2125.130127,1081.018433 
	C2125.330566,1065.747681 2126.108154,1050.428345 2127.739258,1035.250244 
	C2129.090576,1022.677490 2137.848633,1016.134033 2149.820557,1014.204529 
	C2157.357178,1012.989929 2165.051270,1012.195129 2172.677002,1012.178406 
	C2255.669189,1011.996460 2338.661865,1011.900696 2421.653809,1012.052856 
	C2437.960449,1012.082764 2454.281006,1013.022583 2470.561768,1014.062927 
	C2476.118896,1014.418091 2481.761230,1015.839050 2487.035889,1017.702698 
	C2497.089111,1021.254639 2501.097412,1026.900635 2500.402344,1037.322998 
	C2499.942383,1044.217651 2498.746582,1051.297119 2496.454834,1057.790771 
	C2490.148926,1075.657715 2482.827393,1093.165283 2476.473633,1111.016602 
	C2474.172852,1117.480103 2472.245605,1124.513184 2472.234619,1131.289673 
	C2472.063721,1237.613281 2472.281982,1343.937500 2472.310791,1450.261475 
	C2472.333496,1533.255005 2472.227295,1616.248657 2472.161621,1699.242188 
	C2472.122314,1748.904053 2471.908936,1798.566162 2472.045410,1848.227539 
	C2472.132812,1880.100830 2486.004150,1903.945435 2514.970947,1918.055908 
	C2524.501709,1922.698730 2534.563232,1926.293579 2544.503418,1930.045898 
	C2560.347412,1936.026978 2576.463135,1941.319580 2592.145752,1947.686890 
	C2606.581055,1953.548096 2616.563965,1951.338989 2624.277832,1937.609741 
	C2629.122559,1928.987305 2632.337646,1919.420532 2635.978760,1910.157471 
	C2640.474121,1898.719849 2643.836426,1886.769531 2649.095215,1875.709473 
	C2704.433350,1759.321411 2733.070068,1636.895142 2732.998535,1507.902832 
	C2732.968750,1454.471680 2727.994141,1401.506836 2718.421631,1348.920288 
	C2704.015869,1269.782593 2682.807617,1192.621460 2652.115479,1118.201904 
	C2552.098633,875.691895 2377.523682,711.194824 2130.350342,620.590027 
M1695.922485,1736.286255 
	C1679.130249,1739.966553 1673.949219,1751.977661 1673.367432,1764.010620 
	C1672.647827,1778.895386 1678.450684,1786.042847 1693.569580,1785.975830 
	C1704.137085,1785.928955 1714.787354,1784.492065 1725.239136,1782.722290 
	C1743.919922,1779.559082 1762.281738,1775.985718 1781.618286,1778.046997 
	C1808.412720,1780.903442 1835.412109,1781.911865 1862.340820,1783.402588 
	C1875.624512,1784.137939 1888.975708,1784.885254 1902.242920,1784.335938 
	C1915.208984,1783.799316 1921.475830,1776.540039 1922.120239,1763.906372 
	C1922.783081,1750.911621 1917.626099,1744.292236 1904.458496,1741.653687 
	C1900.565430,1740.873413 1896.561523,1740.489624 1892.589844,1740.288208 
	C1879.621826,1739.630493 1866.645630,1738.705811 1853.671875,1738.693970 
	C1836.385864,1738.678223 1818.921631,1738.030640 1801.859741,1740.208130 
	C1782.374390,1742.694580 1763.440186,1741.519531 1744.268433,1738.584717 
	C1728.819946,1736.219727 1713.278687,1733.917603 1695.922485,1736.286255 
M1321.773438,1747.068359 
	C1305.763062,1736.257324 1288.429810,1737.303223 1270.920410,1741.811401 
	C1260.018433,1744.618408 1253.266479,1752.287598 1250.190430,1762.871216 
	C1246.124756,1776.859741 1245.894043,1791.215454 1248.743896,1805.385864 
	C1251.255005,1817.872681 1258.953735,1826.043213 1271.895508,1828.556274 
	C1286.904297,1831.470459 1301.735107,1830.408325 1316.271606,1826.026001 
	C1327.417969,1822.665894 1333.324341,1814.591919 1333.796753,1803.124512 
	C1334.207153,1793.163086 1334.172607,1783.133789 1333.496582,1773.191528 
	C1332.856079,1763.774780 1330.213867,1754.821045 1321.773438,1747.068359 
M2322.439453,1827.976929 
	C2333.027100,1825.327148 2338.609619,1818.140015 2340.523682,1807.778809 
	C2343.468262,1791.841309 2342.414795,1776.018188 2338.296875,1760.449097 
	C2335.468506,1749.757080 2327.884766,1743.997192 2317.231934,1741.691162 
	C2307.299316,1739.540771 2297.464600,1739.632935 2287.612061,1741.940552 
	C2277.440186,1744.323120 2270.161865,1750.205566 2267.266357,1760.343628 
	C2262.434326,1777.261230 2262.207520,1794.487549 2266.262695,1811.538452 
	C2268.788330,1822.156860 2275.964600,1827.803711 2287.085449,1828.284790 
	C2298.321045,1828.770996 2309.599365,1828.264771 2322.439453,1827.976929 
M1319.699219,1277.204712 
	C1328.351807,1272.185425 1331.456543,1264.069092 1332.170166,1254.678101 
	C1332.673096,1248.059692 1333.073364,1241.432617 1333.447510,1234.805420 
	C1334.345581,1218.897827 1326.841675,1208.117065 1311.284546,1203.687744 
	C1298.576050,1200.069458 1285.583862,1200.275513 1272.778564,1202.955933 
	C1259.803345,1205.671997 1251.894531,1213.837402 1249.329834,1227.055664 
	C1247.004761,1239.039429 1247.523804,1250.913818 1250.811279,1262.580811 
	C1253.676025,1272.748047 1260.503052,1279.545776 1271.041016,1280.862793 
	C1286.894775,1282.844360 1302.845093,1283.495972 1319.699219,1277.204712 
M1330.997070,1588.649780 
	C1327.298584,1576.196899 1318.792358,1569.055786 1306.198486,1566.950317 
	C1293.589722,1564.842407 1280.933105,1565.103394 1268.629517,1568.789673 
	C1258.647827,1571.780273 1252.217651,1578.575562 1249.790771,1588.887451 
	C1246.749268,1601.810547 1247.155884,1614.752441 1250.784058,1627.394775 
	C1254.036133,1638.725708 1261.930420,1645.562744 1273.928589,1646.142822 
	C1284.540039,1646.655884 1295.241455,1646.837769 1305.823486,1646.069092 
	C1320.739990,1644.985596 1329.170532,1636.595337 1332.182495,1621.898926 
	C1334.367676,1611.237549 1333.645508,1600.714355 1330.997070,1588.649780 
M1332.993286,1436.178223 
	C1332.851685,1428.524658 1332.901001,1420.861938 1332.527466,1413.219604 
	C1331.810913,1398.562500 1324.713501,1389.784058 1310.626465,1385.896240 
	C1298.847778,1382.645508 1286.797729,1382.703003 1274.922729,1384.539307 
	C1263.264282,1386.342163 1254.563965,1392.837891 1251.018066,1404.587402 
	C1247.300903,1416.905151 1246.783325,1429.460205 1249.516235,1442.101074 
	C1251.870850,1452.991455 1258.533936,1459.637817 1269.284912,1462.214844 
	C1282.437622,1465.367188 1295.801392,1465.503540 1308.975586,1463.173950 
	C1324.169067,1460.487183 1330.278809,1453.392578 1332.993286,1436.178223 
M1707.020630,1202.674316 
	C1700.046387,1203.184204 1693.021118,1203.326050 1686.108521,1204.281860 
	C1672.373535,1206.180908 1664.963745,1213.580322 1664.402588,1227.360718 
	C1663.958252,1238.276733 1664.503052,1249.348755 1665.863647,1260.194092 
	C1667.652100,1274.447632 1674.887451,1280.747681 1689.214478,1281.134033 
	C1699.494141,1281.411255 1709.843628,1281.015137 1720.090820,1280.111450 
	C1733.798340,1278.902588 1741.031006,1271.287842 1742.002808,1257.470215 
	C1742.491821,1250.516602 1742.252319,1243.490967 1742.004639,1236.509888 
	C1740.979004,1207.595093 1728.332275,1202.853271 1707.020630,1202.674316 
M1921.776733,1031.638306 
	C1917.751831,1028.916382 1914.069214,1024.849487 1909.638550,1023.721863 
	C1895.753662,1020.188232 1881.496094,1019.300598 1867.211182,1021.376526 
	C1857.169800,1022.835754 1850.485596,1028.914673 1849.024292,1038.606689 
	C1847.253540,1050.349976 1846.122314,1062.411255 1846.728027,1074.231812 
	C1847.391602,1087.182373 1854.135132,1094.759521 1866.928223,1096.582031 
	C1879.278809,1098.341431 1892.050659,1098.342529 1904.535645,1097.537964 
	C1912.837646,1097.002930 1919.877930,1091.659058 1921.839722,1083.092529 
	C1925.629028,1066.546021 1925.908936,1049.753052 1921.776733,1031.638306 
M1717.492920,1021.031555 
	C1708.208862,1020.804382 1698.907471,1020.112976 1689.645020,1020.461731 
	C1676.628052,1020.951721 1668.355347,1027.270386 1666.463379,1039.647339 
	C1664.667114,1051.397217 1664.026001,1063.489746 1664.477295,1075.370850 
	C1664.937378,1087.484009 1671.171265,1093.996826 1683.297974,1096.581543 
	C1695.006958,1099.077271 1706.941162,1100.147461 1718.941650,1098.271118 
	C1730.341797,1096.488647 1738.289429,1090.272949 1740.063599,1078.821655 
	C1741.678833,1068.397217 1742.281006,1057.664185 1741.903198,1047.118286 
	C1741.357178,1031.876343 1734.321777,1024.608276 1717.492920,1021.031555 
M1874.040527,1202.642334 
	C1862.851318,1203.740601 1852.850586,1206.812988 1849.526855,1219.265869 
	C1846.154541,1231.900269 1845.050415,1244.847534 1846.712891,1257.812256 
	C1848.234985,1269.683228 1855.322998,1277.617310 1867.165039,1279.169189 
	C1878.282593,1280.625977 1889.740112,1281.284912 1900.881226,1280.336426 
	C1916.625000,1278.995850 1923.507812,1270.658447 1924.282471,1254.658813 
	C1924.651978,1247.029541 1924.610962,1239.375610 1924.595093,1231.733276 
	C1924.560791,1215.157349 1917.126587,1206.356934 1900.666626,1204.190674 
	C1892.446045,1203.108643 1884.091919,1203.042236 1874.040527,1202.642334 
M1742.339966,1614.684937 
	C1741.569580,1605.435303 1741.561157,1596.040527 1739.832764,1586.973511 
	C1737.745239,1576.021729 1729.932129,1569.133301 1719.076294,1568.381714 
	C1707.579468,1567.585815 1695.773315,1568.021729 1684.384033,1569.762695 
	C1671.413086,1571.745239 1665.237793,1579.104004 1664.419189,1592.236816 
	C1663.822998,1601.800781 1664.135986,1611.580933 1665.448975,1621.070190 
	C1667.964844,1639.254517 1676.971924,1646.101807 1695.424805,1645.619995 
	C1701.348633,1645.465332 1707.294189,1645.663452 1713.215210,1645.975952 
	C1730.301025,1646.877686 1739.503906,1639.431152 1741.868896,1622.532227 
	C1742.144775,1620.560547 1742.136841,1618.549194 1742.339966,1614.684937 
M1739.766235,1400.045166 
	C1736.233643,1392.964111 1730.382202,1388.358032 1722.741089,1387.656006 
	C1710.238770,1386.507324 1697.600952,1385.658569 1685.085815,1386.199463 
	C1675.101196,1386.630981 1668.167847,1393.457275 1666.721069,1403.161743 
	C1664.919312,1415.248535 1664.033447,1427.650635 1664.518921,1439.846191 
	C1664.952271,1450.728271 1671.596680,1458.566528 1682.594971,1461.033447 
	C1695.636230,1463.958496 1708.879395,1464.983765 1722.187622,1462.328125 
	C1732.399658,1460.290039 1739.416382,1454.336060 1740.889526,1444.125610 
	C1742.925293,1430.015991 1743.624023,1415.718140 1739.766235,1400.045166 
M1871.916016,1568.289185 
	C1858.582642,1570.725830 1849.225098,1577.487549 1846.973999,1591.663330 
	C1844.911987,1604.648438 1845.819336,1617.490601 1849.639893,1630.073975 
	C1852.454590,1639.344849 1859.050537,1645.028809 1868.450562,1645.382690 
	C1880.677124,1645.843140 1893.050415,1645.532104 1905.195557,1644.127319 
	C1916.854736,1642.778687 1923.169678,1635.865356 1923.910645,1624.302368 
	C1924.609009,1613.403931 1924.649658,1602.323608 1923.498901,1591.480591 
	C1921.937378,1576.766113 1913.478882,1569.095581 1898.467651,1567.918335 
	C1890.232910,1567.272339 1881.891357,1567.991455 1871.916016,1568.289185 
M1912.689941,1389.867310 
	C1897.743286,1382.537964 1882.183838,1384.266479 1866.748657,1387.306885 
	C1855.886597,1389.446289 1849.378906,1396.641357 1847.293091,1407.585449 
	C1844.749390,1420.932007 1845.808350,1434.130615 1849.606079,1447.075317 
	C1852.067505,1455.465088 1857.965820,1460.379883 1866.526855,1462.264526 
	C1879.854614,1465.198853 1893.125854,1464.046143 1906.143066,1460.988403 
	C1918.540649,1458.076416 1924.045776,1451.140625 1924.613403,1438.233276 
	C1925.036133,1428.619019 1924.590820,1418.944214 1924.096313,1409.318848 
	C1923.702148,1401.643066 1920.375854,1395.237915 1912.689941,1389.867310 
M2292.722412,1203.706665 
	C2271.519043,1205.701660 2264.516602,1213.169556 2264.645996,1234.297241 
	C2264.696777,1242.602661 2265.100586,1250.947510 2266.029785,1259.196899 
	C2267.631348,1273.410889 2274.442871,1280.154907 2288.728271,1280.824951 
	C2299.313232,1281.321533 2310.015869,1281.005737 2320.569824,1280.020386 
	C2332.162598,1278.938232 2339.280029,1272.372314 2340.055176,1260.899292 
	C2340.879639,1248.694458 2340.698975,1236.242432 2339.219971,1224.109985 
	C2337.638672,1211.139404 2330.629395,1204.993774 2317.320068,1203.451660 
	C2309.808594,1202.581543 2302.092529,1203.481079 2292.722412,1203.706665 
M2291.764160,1463.575562 
	C2301.386230,1463.010254 2311.088867,1463.035889 2320.610596,1461.735840 
	C2333.626953,1459.958618 2340.433838,1452.553711 2340.832764,1439.794922 
	C2341.175293,1428.852905 2340.865967,1417.834595 2339.957031,1406.923950 
	C2338.897217,1394.204102 2331.572754,1386.890625 2318.792236,1385.866455 
	C2309.883545,1385.152466 2300.826172,1385.342285 2291.899414,1385.999390 
	C2273.106445,1387.382935 2264.483887,1396.822998 2264.402832,1415.767700 
	C2264.373047,1422.736328 2265.162842,1429.711792 2265.655762,1436.678711 
	C2266.947754,1454.928833 2271.876953,1460.342651 2291.764160,1463.575562 
M2341.681152,1596.858643 
	C2341.583008,1580.162598 2335.879639,1572.055420 2320.798096,1568.786133 
	C2309.325684,1566.299072 2297.619141,1566.530273 2286.123535,1568.975708 
	C2274.515137,1571.445068 2266.876221,1578.653442 2265.827637,1590.584839 
	C2264.906006,1601.071655 2264.751709,1611.829712 2266.013184,1622.255615 
	C2267.793701,1636.970215 2276.539307,1644.830200 2291.270020,1645.726074 
	C2299.817871,1646.245728 2308.609619,1645.849487 2317.048096,1644.423096 
	C2334.088867,1641.542725 2340.111816,1633.659790 2340.395020,1616.438599 
	C2340.492920,1610.495972 2341.139893,1604.562500 2341.681152,1596.858643 
z"/>
<path fill="#FEFEFE" opacity="1.000000" stroke="none" 
	d="
M2131.051270,620.937744 
	C2377.523682,711.194824 2552.098633,875.691895 2652.115479,1118.201904 
	C2682.807617,1192.621460 2704.015869,1269.782593 2718.421631,1348.920288 
	C2727.994141,1401.506836 2732.968750,1454.471680 2732.998535,1507.902832 
	C2733.070068,1636.895142 2704.433350,1759.321411 2649.095215,1875.709473 
	C2643.836426,1886.769531 2640.474121,1898.719849 2635.978760,1910.157471 
	C2632.337646,1919.420532 2629.122559,1928.987305 2624.277832,1937.609741 
	C2616.563965,1951.338989 2606.581055,1953.548096 2592.145752,1947.686890 
	C2576.463135,1941.319580 2560.347412,1936.026978 2544.503418,1930.045898 
	C2534.563232,1926.293579 2524.501709,1922.698730 2514.970947,1918.055908 
	C2486.004150,1903.945435 2472.132812,1880.100830 2472.045410,1848.227539 
	C2471.908936,1798.566162 2472.122314,1748.904053 2472.161621,1699.242188 
	C2472.227295,1616.248657 2472.333496,1533.255005 2472.310791,1450.261475 
	C2472.281982,1343.937500 2472.063721,1237.613281 2472.234619,1131.289673 
	C2472.245605,1124.513184 2474.172852,1117.480103 2476.473633,1111.016602 
	C2482.827393,1093.165283 2490.148926,1075.657715 2496.454834,1057.790771 
	C2498.746582,1051.297119 2499.942383,1044.217651 2500.402344,1037.322998 
	C2501.097412,1026.900635 2497.089111,1021.254639 2487.035889,1017.702698 
	C2481.761230,1015.839050 2476.118896,1014.418091 2470.561768,1014.062927 
	C2454.281006,1013.022583 2437.960449,1012.082764 2421.653809,1012.052856 
	C2338.661865,1011.900696 2255.669189,1011.996460 2172.677002,1012.178406 
	C2165.051270,1012.195129 2157.357178,1012.989929 2149.820557,1014.204529 
	C2137.848633,1016.134033 2129.090576,1022.677490 2127.739258,1035.250244 
	C2126.108154,1050.428345 2125.330566,1065.747681 2125.130127,1081.018433 
	C2124.810791,1105.333008 2125.378662,1129.657959 2125.388428,1153.978516 
	C2125.430176,1260.638184 2125.583008,1367.298096 2125.349365,1473.957275 
	C2125.170654,1555.602295 2124.375244,1637.245972 2124.145508,1718.890991 
	C2124.120605,1727.800293 2126.186768,1736.700562 2126.988525,1745.631592 
	C2127.730469,1753.892090 2128.688721,1762.206299 2128.443848,1770.463867 
	C2128.135742,1780.844482 2122.091797,1788.063965 2112.544922,1791.439087 
	C2097.040039,1796.920776 2081.162842,1797.216064 2065.469727,1792.030518 
	C2052.812256,1787.848267 2047.327271,1777.934204 2046.317749,1765.398315 
	C2045.758545,1758.455566 2046.229492,1751.415894 2046.454224,1744.426880 
	C2046.818115,1733.114502 2047.764771,1721.807861 2047.762939,1710.498901 
	C2047.751343,1642.507446 2047.510498,1574.515991 2047.401855,1506.524536 
	C2047.240356,1405.535889 2046.886353,1304.546631 2047.068237,1203.558594 
	C2047.203857,1128.245239 2048.089111,1052.933350 2048.563477,977.620300 
	C2048.653564,963.291321 2048.111816,949.042664 2044.520630,934.983154 
	C2038.819702,912.664368 2025.182007,897.495178 2004.307495,888.458496 
	C2001.871338,887.403809 1999.376831,886.248108 1996.795044,885.803772 
	C1980.435303,882.987671 1967.846069,873.606140 1955.114990,863.661255 
	C1923.153198,838.693726 1887.459351,821.533020 1847.052490,814.994446 
	C1813.235474,809.522156 1780.020752,812.816406 1747.068481,821.162231 
	C1705.835327,831.605469 1667.541626,849.347961 1629.793823,868.393677 
	C1611.977173,877.383240 1594.413940,886.877075 1576.784180,896.233398 
	C1572.970093,898.257507 1569.232300,900.483276 1565.684326,902.940979 
	C1550.395386,913.532043 1542.259033,928.201294 1541.841187,946.790955 
	C1541.549316,959.779053 1542.004272,972.782288 1541.990723,985.778625 
	C1541.810181,1159.761475 1541.464355,1333.744263 1541.473511,1507.727051 
	C1541.477417,1582.044312 1542.225830,1656.361328 1542.593872,1730.678833 
	C1542.655029,1743.026245 1542.019043,1755.277832 1538.239136,1767.223511 
	C1532.650391,1784.885010 1520.682739,1794.895264 1502.632690,1798.119263 
	C1490.006958,1800.374268 1477.436890,1799.984009 1463.828979,1797.626953 
	C1463.828979,1794.538940 1463.834961,1791.290405 1463.828125,1788.041870 
	C1463.682739,1719.050049 1463.574463,1650.057983 1463.379272,1581.066284 
	C1463.157837,1502.748901 1462.325317,1424.428833 1462.737671,1346.115112 
	C1463.181396,1261.816528 1464.965698,1177.525391 1465.639648,1093.226929 
	C1465.750488,1079.354736 1464.420776,1065.193115 1461.538452,1051.636963 
	C1456.671509,1028.747070 1441.663086,1014.902771 1418.283081,1012.069092 
	C1404.475952,1010.395630 1390.313110,1009.605896 1376.472656,1010.625244 
	C1324.880249,1014.424988 1273.249146,1014.294800 1221.597656,1013.618164 
	C1191.947632,1013.229858 1162.302979,1011.984131 1132.656860,1012.016602 
	C1122.838135,1012.027344 1112.590576,1013.522278 1103.290894,1016.605835 
	C1080.767212,1024.074097 1071.522827,1043.895508 1080.114624,1066.016357 
	C1083.293701,1074.201782 1088.142212,1082.335449 1094.120483,1088.723022 
	C1111.015991,1106.775757 1118.386353,1127.575928 1118.322632,1152.219727 
	C1117.914307,1310.203735 1117.660522,1468.189331 1117.974121,1626.173218 
	C1118.112305,1695.808716 1119.753906,1765.440552 1120.557495,1835.075928 
	C1120.653320,1843.372925 1120.494873,1851.796143 1119.204712,1859.963501 
	C1114.861328,1887.460693 1100.144653,1907.964844 1075.422119,1920.740601 
	C1065.125488,1926.061523 1054.245239,1930.328369 1043.419067,1934.530151 
	C1030.099243,1939.699463 1016.566284,1944.320679 1003.111938,1949.141357 
	C984.692139,1955.741089 971.913879,1951.118408 963.653564,1933.287842 
	C958.797729,1922.806030 955.959961,1911.384521 952.286316,1900.361572 
	C948.821289,1889.964355 946.072021,1879.281982 941.938232,1869.161865 
	C912.411926,1796.878540 889.169189,1722.700073 874.688171,1645.925781 
	C859.922241,1567.641235 854.359009,1488.713379 860.548889,1409.175171 
	C872.032715,1261.611938 920.410461,1126.620728 1001.034180,1003.065674 
	C1079.474854,882.856201 1176.228638,780.074768 1295.473511,699.356628 
	C1389.789185,635.513428 1492.855957,592.297913 1604.712891,570.501770 
	C1652.864502,561.119019 1701.529907,556.209106 1750.616333,555.244446 
	C1879.675659,552.708313 2004.223755,576.484436 2125.608154,618.984619 
	C2127.183350,619.536072 2128.769287,620.055603 2131.051270,620.937744 
z"/>
<path fill="#D7D8D8" opacity="1.000000" stroke="none" 
	d="
M1696.734619,1736.175049 
	C1713.278687,1733.917603 1728.819946,1736.219727 1744.268433,1738.584717 
	C1763.440186,1741.519531 1782.374390,1742.694580 1801.859741,1740.208130 
	C1818.921631,1738.030640 1836.385864,1738.678223 1853.671875,1738.693970 
	C1866.645630,1738.705811 1879.621826,1739.630493 1892.589844,1740.288208 
	C1896.561523,1740.489624 1900.565430,1740.873413 1904.458496,1741.653687 
	C1917.626099,1744.292236 1922.783081,1750.911621 1922.120239,1763.906372 
	C1921.475830,1776.540039 1915.208984,1783.799316 1902.242920,1784.335938 
	C1888.975708,1784.885254 1875.624512,1784.137939 1862.340820,1783.402588 
	C1835.412109,1781.911865 1808.412720,1780.903442 1781.618286,1778.046997 
	C1762.281738,1775.985718 1743.919922,1779.559082 1725.239136,1782.722290 
	C1714.787354,1784.492065 1704.137085,1785.928955 1693.569580,1785.975830 
	C1678.450684,1786.042847 1672.647827,1778.895386 1673.367432,1764.010620 
	C1673.949219,1751.977661 1679.130249,1739.966553 1696.734619,1736.175049 
z"/>
<path fill="#CCCACB" opacity="1.000000" stroke="none" 
	d="
M1322.338867,1747.548584 
	C1330.213867,1754.821045 1332.856079,1763.774780 1333.496582,1773.191528 
	C1334.172607,1783.133789 1334.207153,1793.163086 1333.796753,1803.124512 
	C1333.324341,1814.591919 1327.417969,1822.665894 1316.271606,1826.026001 
	C1301.735107,1830.408325 1286.904297,1831.470459 1271.895508,1828.556274 
	C1258.953735,1826.043213 1251.255005,1817.872681 1248.743896,1805.385864 
	C1245.894043,1791.215454 1246.124756,1776.859741 1250.190430,1762.871216 
	C1253.266479,1752.287598 1260.018433,1744.618408 1270.920410,1741.811401 
	C1288.429810,1737.303223 1305.763062,1736.257324 1322.338867,1747.548584 
z"/>
<path fill="#E6E7E7" opacity="1.000000" stroke="none" 
	d="
M2321.649414,1828.085205 
	C2309.599365,1828.264771 2298.321045,1828.770996 2287.085449,1828.284790 
	C2275.964600,1827.803711 2268.788330,1822.156860 2266.262695,1811.538452 
	C2262.207520,1794.487549 2262.434326,1777.261230 2267.266357,1760.343628 
	C2270.161865,1750.205566 2277.440186,1744.323120 2287.612061,1741.940552 
	C2297.464600,1739.632935 2307.299316,1739.540771 2317.231934,1741.691162 
	C2327.884766,1743.997192 2335.468506,1749.757080 2338.296875,1760.449097 
	C2342.414795,1776.018188 2343.468262,1791.841309 2340.523682,1807.778809 
	C2338.609619,1818.140015 2333.027100,1825.327148 2321.649414,1828.085205 
z"/>
<path fill="#D7D8D8" opacity="1.000000" stroke="none" 
	d="
M1319.003418,1277.555176 
	C1302.845093,1283.495972 1286.894775,1282.844360 1271.041016,1280.862793 
	C1260.503052,1279.545776 1253.676025,1272.748047 1250.811279,1262.580811 
	C1247.523804,1250.913818 1247.004761,1239.039429 1249.329834,1227.055664 
	C1251.894531,1213.837402 1259.803345,1205.671997 1272.778564,1202.955933 
	C1285.583862,1200.275513 1298.576050,1200.069458 1311.284546,1203.687744 
	C1326.841675,1208.117065 1334.345581,1218.897827 1333.447510,1234.805420 
	C1333.073364,1241.432617 1332.673096,1248.059692 1332.170166,1254.678101 
	C1331.456543,1264.069092 1328.351807,1272.185425 1319.003418,1277.555176 
z"/>
<path fill="#D7D8D8" opacity="1.000000" stroke="none" 
	d="
M1331.265259,1589.415527 
	C1333.645508,1600.714355 1334.367676,1611.237549 1332.182495,1621.898926 
	C1329.170532,1636.595337 1320.739990,1644.985596 1305.823486,1646.069092 
	C1295.241455,1646.837769 1284.540039,1646.655884 1273.928589,1646.142822 
	C1261.930420,1645.562744 1254.036133,1638.725708 1250.784058,1627.394775 
	C1247.155884,1614.752441 1246.749268,1601.810547 1249.790771,1588.887451 
	C1252.217651,1578.575562 1258.647827,1571.780273 1268.629517,1568.789673 
	C1280.933105,1565.103394 1293.589722,1564.842407 1306.198486,1566.950317 
	C1318.792358,1569.055786 1327.298584,1576.196899 1331.265259,1589.415527 
z"/>
<path fill="#D7D8D8" opacity="1.000000" stroke="none" 
	d="
M1332.904907,1437.003784 
	C1330.278809,1453.392578 1324.169067,1460.487183 1308.975586,1463.173950 
	C1295.801392,1465.503540 1282.437622,1465.367188 1269.284912,1462.214844 
	C1258.533936,1459.637817 1251.870850,1452.991455 1249.516235,1442.101074 
	C1246.783325,1429.460205 1247.300903,1416.905151 1251.018066,1404.587402 
	C1254.563965,1392.837891 1263.264282,1386.342163 1274.922729,1384.539307 
	C1286.797729,1382.703003 1298.847778,1382.645508 1310.626465,1385.896240 
	C1324.713501,1389.784058 1331.810913,1398.562500 1332.527466,1413.219604 
	C1332.901001,1420.861938 1332.851685,1428.524658 1332.904907,1437.003784 
z"/>
<path fill="#FBFBFB" opacity="1.000000" stroke="none" 
	d="
M1707.904175,1202.597046 
	C1728.332275,1202.853271 1740.979004,1207.595093 1742.004639,1236.509888 
	C1742.252319,1243.490967 1742.491821,1250.516602 1742.002808,1257.470215 
	C1741.031006,1271.287842 1733.798340,1278.902588 1720.090820,1280.111450 
	C1709.843628,1281.015137 1699.494141,1281.411255 1689.214478,1281.134033 
	C1674.887451,1280.747681 1667.652100,1274.447632 1665.863647,1260.194092 
	C1664.503052,1249.348755 1663.958252,1238.276733 1664.402588,1227.360718 
	C1664.963745,1213.580322 1672.373535,1206.180908 1686.108521,1204.281860 
	C1693.021118,1203.326050 1700.046387,1203.184204 1707.904175,1202.597046 
z"/>
<path fill="#FBFBFB" opacity="1.000000" stroke="none" 
	d="
M1922.113525,1032.327393 
	C1925.908936,1049.753052 1925.629028,1066.546021 1921.839722,1083.092529 
	C1919.877930,1091.659058 1912.837646,1097.002930 1904.535645,1097.537964 
	C1892.050659,1098.342529 1879.278809,1098.341431 1866.928223,1096.582031 
	C1854.135132,1094.759521 1847.391602,1087.182373 1846.728027,1074.231812 
	C1846.122314,1062.411255 1847.253540,1050.349976 1849.024292,1038.606689 
	C1850.485596,1028.914673 1857.169800,1022.835754 1867.211182,1021.376526 
	C1881.496094,1019.300598 1895.753662,1020.188232 1909.638550,1023.721863 
	C1914.069214,1024.849487 1917.751831,1028.916382 1922.113525,1032.327393 
z"/>
<path fill="#FBFBFB" opacity="1.000000" stroke="none" 
	d="
M1718.328613,1021.191040 
	C1734.321777,1024.608276 1741.357178,1031.876343 1741.903198,1047.118286 
	C1742.281006,1057.664185 1741.678833,1068.397217 1740.063599,1078.821655 
	C1738.289429,1090.272949 1730.341797,1096.488647 1718.941650,1098.271118 
	C1706.941162,1100.147461 1695.006958,1099.077271 1683.297974,1096.581543 
	C1671.171265,1093.996826 1664.937378,1087.484009 1664.477295,1075.370850 
	C1664.026001,1063.489746 1664.667114,1051.397217 1666.463379,1039.647339 
	C1668.355347,1027.270386 1676.628052,1020.951721 1689.645020,1020.461731 
	C1698.907471,1020.112976 1708.208862,1020.804382 1718.328613,1021.191040 
z"/>
<path fill="#FBFBFB" opacity="1.000000" stroke="none" 
	d="
M1874.919312,1202.579346 
	C1884.091919,1203.042236 1892.446045,1203.108643 1900.666626,1204.190674 
	C1917.126587,1206.356934 1924.560791,1215.157349 1924.595093,1231.733276 
	C1924.610962,1239.375610 1924.651978,1247.029541 1924.282471,1254.658813 
	C1923.507812,1270.658447 1916.625000,1278.995850 1900.881226,1280.336426 
	C1889.740112,1281.284912 1878.282593,1280.625977 1867.165039,1279.169189 
	C1855.322998,1277.617310 1848.234985,1269.683228 1846.712891,1257.812256 
	C1845.050415,1244.847534 1846.154541,1231.900269 1849.526855,1219.265869 
	C1852.850586,1206.812988 1862.851318,1203.740601 1874.919312,1202.579346 
z"/>
<path fill="#FBFBFB" opacity="1.000000" stroke="none" 
	d="
M1742.300293,1615.620605 
	C1742.136841,1618.549194 1742.144775,1620.560547 1741.868896,1622.532227 
	C1739.503906,1639.431152 1730.301025,1646.877686 1713.215210,1645.975952 
	C1707.294189,1645.663452 1701.348633,1645.465332 1695.424805,1645.619995 
	C1676.971924,1646.101807 1667.964844,1639.254517 1665.448975,1621.070190 
	C1664.135986,1611.580933 1663.822998,1601.800781 1664.419189,1592.236816 
	C1665.237793,1579.104004 1671.413086,1571.745239 1684.384033,1569.762695 
	C1695.773315,1568.021729 1707.579468,1567.585815 1719.076294,1568.381714 
	C1729.932129,1569.133301 1737.745239,1576.021729 1739.832764,1586.973511 
	C1741.561157,1596.040527 1741.569580,1605.435303 1742.300293,1615.620605 
z"/>
<path fill="#FBFBFB" opacity="1.000000" stroke="none" 
	d="
M1740.023560,1400.816162 
	C1743.624023,1415.718140 1742.925293,1430.015991 1740.889526,1444.125610 
	C1739.416382,1454.336060 1732.399658,1460.290039 1722.187622,1462.328125 
	C1708.879395,1464.983765 1695.636230,1463.958496 1682.594971,1461.033447 
	C1671.596680,1458.566528 1664.952271,1450.728271 1664.518921,1439.846191 
	C1664.033447,1427.650635 1664.919312,1415.248535 1666.721069,1403.161743 
	C1668.167847,1393.457275 1675.101196,1386.630981 1685.085815,1386.199463 
	C1697.600952,1385.658569 1710.238770,1386.507324 1722.741089,1387.656006 
	C1730.382202,1388.358032 1736.233643,1392.964111 1740.023560,1400.816162 
z"/>
<path fill="#FBFBFB" opacity="1.000000" stroke="none" 
	d="
M1872.756958,1568.192139 
	C1881.891357,1567.991455 1890.232910,1567.272339 1898.467651,1567.918335 
	C1913.478882,1569.095581 1921.937378,1576.766113 1923.498901,1591.480591 
	C1924.649658,1602.323608 1924.609009,1613.403931 1923.910645,1624.302368 
	C1923.169678,1635.865356 1916.854736,1642.778687 1905.195557,1644.127319 
	C1893.050415,1645.532104 1880.677124,1645.843140 1868.450562,1645.382690 
	C1859.050537,1645.028809 1852.454590,1639.344849 1849.639893,1630.073975 
	C1845.819336,1617.490601 1844.911987,1604.648438 1846.973999,1591.663330 
	C1849.225098,1577.487549 1858.582642,1570.725830 1872.756958,1568.192139 
z"/>
<path fill="#FBFBFB" opacity="1.000000" stroke="none" 
	d="
M1913.349365,1390.248779 
	C1920.375854,1395.237915 1923.702148,1401.643066 1924.096313,1409.318848 
	C1924.590820,1418.944214 1925.036133,1428.619019 1924.613403,1438.233276 
	C1924.045776,1451.140625 1918.540649,1458.076416 1906.143066,1460.988403 
	C1893.125854,1464.046143 1879.854614,1465.198853 1866.526855,1462.264526 
	C1857.965820,1460.379883 1852.067505,1455.465088 1849.606079,1447.075317 
	C1845.808350,1434.130615 1844.749390,1420.932007 1847.293091,1407.585449 
	C1849.378906,1396.641357 1855.886597,1389.446289 1866.748657,1387.306885 
	C1882.183838,1384.266479 1897.743286,1382.537964 1913.349365,1390.248779 
z"/>
<path fill="#FBFBFB" opacity="1.000000" stroke="none" 
	d="
M2293.595459,1203.645020 
	C2302.092529,1203.481079 2309.808594,1202.581543 2317.320068,1203.451660 
	C2330.629395,1204.993774 2337.638672,1211.139404 2339.219971,1224.109985 
	C2340.698975,1236.242432 2340.879639,1248.694458 2340.055176,1260.899292 
	C2339.280029,1272.372314 2332.162598,1278.938232 2320.569824,1280.020386 
	C2310.015869,1281.005737 2299.313232,1281.321533 2288.728271,1280.824951 
	C2274.442871,1280.154907 2267.631348,1273.410889 2266.029785,1259.196899 
	C2265.100586,1250.947510 2264.696777,1242.602661 2264.645996,1234.297241 
	C2264.516602,1213.169556 2271.519043,1205.701660 2293.595459,1203.645020 
z"/>
<path fill="#FBFBFB" opacity="1.000000" stroke="none" 
	d="
M2290.879395,1463.546875 
	C2271.876953,1460.342651 2266.947754,1454.928833 2265.655762,1436.678711 
	C2265.162842,1429.711792 2264.373047,1422.736328 2264.402832,1415.767700 
	C2264.483887,1396.822998 2273.106445,1387.382935 2291.899414,1385.999390 
	C2300.826172,1385.342285 2309.883545,1385.152466 2318.792236,1385.866455 
	C2331.572754,1386.890625 2338.897217,1394.204102 2339.957031,1406.923950 
	C2340.865967,1417.834595 2341.175293,1428.852905 2340.832764,1439.794922 
	C2340.433838,1452.553711 2333.626953,1459.958618 2320.610596,1461.735840 
	C2311.088867,1463.035889 2301.386230,1463.010254 2290.879395,1463.546875 
z"/>
<path fill="#FBFBFB" opacity="1.000000" stroke="none" 
	d="
M2341.608398,1597.741699 
	C2341.139893,1604.562500 2340.492920,1610.495972 2340.395020,1616.438599 
	C2340.111816,1633.659790 2334.088867,1641.542725 2317.048096,1644.423096 
	C2308.609619,1645.849487 2299.817871,1646.245728 2291.270020,1645.726074 
	C2276.539307,1644.830200 2267.793701,1636.970215 2266.013184,1622.255615 
	C2264.751709,1611.829712 2264.906006,1601.071655 2265.827637,1590.584839 
	C2266.876221,1578.653442 2274.515137,1571.445068 2286.123535,1568.975708 
	C2297.619141,1566.530273 2309.325684,1566.299072 2320.798096,1568.786133 
	C2335.879639,1572.055420 2341.583008,1580.162598 2341.608398,1597.741699 
z"/>
</svg>